<svg xmlns="http://www.w3.org/2000/svg" width="160" height="50" viewBox="0 0 160 50">
  <metadata><?xpacket begin="﻿" id="W5M0MpCehiHzreSzNTczkc9d"?>
<x:xmpmeta xmlns:x="adobe:ns:meta/" x:xmptk="Adobe XMP Core 5.6-c142 79.160924, 2017/07/13-01:06:39        ">
   <rdf:RDF xmlns:rdf="http://www.w3.org/1999/02/22-rdf-syntax-ns#">
      <rdf:Description rdf:about=""/>
   </rdf:RDF>
</x:xmpmeta>
                                                                                                    
                                                                                                    
                                                                                                    
                                                                                                    
                                                                                                    
                                                                                                    
                                                                                                    
                                                                                                    
                                                                                                    
                                                                                                    
                                                                                                    
                                                                                                    
                                                                                                    
                                                                                                    
                                                                                                    
                                                                                                    
                                                                                                    
                                                                                                    
                                                                                                    
                                                                                                    
                           
<?xpacket end="w"?></metadata>
<defs>
    <style>
      .cls-1 {
        fill: #fff;
        fill-rule: evenodd;
      }
    </style>
  </defs>
  <path class="cls-1" d="M37.316,12.213L32.808,4.386A7.747,7.747,0,0,0,22.226,1.533L5.972,10.939a1.944,1.944,0,0,0-.706,2.653L17.579,34.968a1.935,1.935,0,0,0,2.642.715l0,0,16.254-9.406L34.54,22.909,19.961,31.345,9.587,13.336,24.165,4.9a3.874,3.874,0,0,1,5.291,1.427l4.509,7.826L19.386,22.589l1.939,3.366,17.93-10.376a3.874,3.874,0,0,1,5.291,1.427L51.033,28.27A3.908,3.908,0,0,1,49.615,33.6L28.347,45.9l-4.508-7.827-3.351,1.939,5.478,9.51a1.935,1.935,0,0,0,2.642.715l0,0L51.554,36.963A7.8,7.8,0,0,0,54.385,26.33L47.9,15.066A7.747,7.747,0,0,0,37.316,12.213Zm21.8,30.532,0.924-1.184a5.085,5.085,0,0,0,3.864,1.776c2.2,0,2.9-1.184,2.9-2.146,0-3.182-7.3-1.406-7.3-5.81,0-2.035,1.812-3.442,4.252-3.442a5.792,5.792,0,0,1,4.363,1.739L67.2,34.807a4.651,4.651,0,0,0-3.568-1.48c-1.461,0-2.533.8-2.533,1.961,0,2.776,7.3,1.184,7.3,5.792,0,1.776-1.22,3.627-4.548,3.627A6.134,6.134,0,0,1,59.118,42.745Zm11.075-4.422a6.134,6.134,0,1,1,12.258,0A6.134,6.134,0,1,1,70.192,38.323Zm10.668,0c0-2.887-1.793-5.014-4.548-5.014-2.773,0-4.53,2.128-4.53,5.014,0,2.868,1.756,5.014,4.53,5.014C79.067,43.337,80.86,41.191,80.86,38.323Zm3.4,6.384V31.939h8.08v1.369H85.791V37.49h4.753v1.369H85.791v5.847H84.256Zm13.817,0v-11.4h-3.9V31.939h9.355v1.369h-3.92v11.4H98.073Zm8.168-38.412H99.624V26.145h6.617a9.921,9.921,0,0,0,9.917-9.925h0A9.921,9.921,0,0,0,106.241,6.294Zm6.132,9.926a6.135,6.135,0,0,1-6.132,6.137h-2.832V10.082h2.832a6.135,6.135,0,0,1,6.132,6.137h0ZM95.839,26.145L89.689,6.319H85.458L79.308,26.145h3.963l1.175-3.788H90.7l1.175,3.788h3.963ZM85.763,18.114l1.811-5.838,1.811,5.838H85.763Zm37.966,8.031h-3.786V6.294h3.786V26.145Zm17.48-19.851V18.847L132.245,6.294H128.46V26.145h3.785V13.592l8.964,12.553h3.785V6.294h-3.785ZM73.661,15.576a5.886,5.886,0,0,0-4.849-9.25H59.128v7.722h-0.01v12.1H69.747A5.978,5.978,0,0,0,75.652,20.1h0A6.091,6.091,0,0,0,73.661,15.576ZM62.913,10.192h5.762a1.935,1.935,0,0,1,1.937,1.933h0a1.934,1.934,0,0,1-1.756,1.924H62.913V10.192Zm6.68,12.153H62.9V18.111h6.69A2.125,2.125,0,0,1,69.593,22.345Z"/>
</svg>
