<svg xmlns="http://www.w3.org/2000/svg" width="320" height="100" viewBox="0 0 320 100">
  <metadata><?xpacket begin="﻿" id="W5M0MpCehiHzreSzNTczkc9d"?>
<x:xmpmeta xmlns:x="adobe:ns:meta/" x:xmptk="Adobe XMP Core 5.6-c142 79.160924, 2017/07/13-01:06:39        ">
   <rdf:RDF xmlns:rdf="http://www.w3.org/1999/02/22-rdf-syntax-ns#">
      <rdf:Description rdf:about=""/>
   </rdf:RDF>
</x:xmpmeta>
                                                                                                    
                                                                                                    
                                                                                                    
                                                                                                    
                                                                                                    
                                                                                                    
                                                                                                    
                                                                                                    
                                                                                                    
                                                                                                    
                                                                                                    
                                                                                                    
                                                                                                    
                                                                                                    
                                                                                                    
                                                                                                    
                                                                                                    
                                                                                                    
                                                                                                    
                                                                                                    
                           
<?xpacket end="w"?></metadata>
<defs>
    <style>
      .cls-1 {
        fill: #fff;
        fill-rule: evenodd;
      }
    </style>
  </defs>
  <path class="cls-1" d="M74.632,24.426L65.615,8.773A15.494,15.494,0,0,0,44.453,3.065L11.944,21.878a3.888,3.888,0,0,0-1.412,5.306L35.158,69.936a3.869,3.869,0,0,0,5.284,1.43l0.006,0L72.957,52.55l-3.878-6.733L39.922,62.691,19.173,26.672,48.331,9.8a7.747,7.747,0,0,1,10.581,2.854l9.017,15.653L38.771,45.178l3.878,6.732L78.51,31.159a7.747,7.747,0,0,1,10.581,2.854L102.067,56.54A7.817,7.817,0,0,1,99.23,67.2L56.694,91.809,47.678,76.156l-6.7,3.879,10.956,19.02a3.87,3.87,0,0,0,5.285,1.43l0.006,0,45.886-26.555a15.6,15.6,0,0,0,5.662-21.267L95.793,30.132A15.494,15.494,0,0,0,74.632,24.426Zm43.6,61.064,1.849-2.368a10.17,10.17,0,0,0,7.728,3.552c4.4,0,5.806-2.368,5.806-4.293,0-6.365-14.606-2.812-14.606-11.62,0-4.07,3.624-6.883,8.5-6.883a11.584,11.584,0,0,1,8.726,3.479l-1.849,2.258a9.3,9.3,0,0,0-7.136-2.961c-2.922,0-5.066,1.591-5.066,3.922,0,5.551,14.606,2.368,14.606,11.583,0,3.553-2.441,7.253-9.1,7.253A12.268,12.268,0,0,1,118.235,85.49Zm22.149-8.845c0-7.29,4.955-12.768,12.24-12.768S164.9,69.355,164.9,76.645s-4.993,12.767-12.277,12.767S140.384,83.936,140.384,76.645Zm21.336,0c0-5.773-3.586-10.029-9.1-10.029-5.547,0-9.06,4.255-9.06,10.029,0,5.736,3.513,10.029,9.06,10.029C158.134,86.674,161.72,82.381,161.72,76.645Zm6.792,12.767V63.878h16.16v2.739h-13.09V74.98h9.5v2.739h-9.5V89.413h-3.07Zm27.634,0v-22.8h-7.8V63.878h18.71v2.739h-7.839v22.8h-3.069Zm16.335-76.825H199.248v39.7h13.233a19.843,19.843,0,0,0,19.835-19.851h0A19.843,19.843,0,0,0,212.481,12.588Zm12.265,19.851a12.27,12.27,0,0,1-12.265,12.275h-5.663V20.164h5.663a12.27,12.27,0,0,1,12.265,12.274h0Zm-33.069,19.85-12.3-39.651h-8.463l-12.3,39.651h7.927l2.35-7.577H181.4l2.35,7.577h7.927ZM171.525,36.227l3.622-11.676,3.621,11.676h-7.243ZM247.457,52.29h-7.57v-39.7h7.57v39.7Zm34.961-39.7V37.695L264.491,12.588H256.92v39.7h7.571V27.183L282.418,52.29h7.571v-39.7h-7.571Zm-135.1,18.565a11.773,11.773,0,0,0-9.7-18.5H118.255V28.1h-0.02V52.29h21.259a11.956,11.956,0,0,0,11.81-12.1h0A12.183,12.183,0,0,0,147.322,31.153Zm-21.5-10.769H137.35a3.869,3.869,0,0,1,3.874,3.865h0a3.868,3.868,0,0,1-3.513,3.847H125.825V20.383ZM139.186,44.69h-13.38V36.221h13.38A4.251,4.251,0,0,1,139.186,44.69Z"/>
</svg>
