<?xml version="1.0" encoding="utf-8"?>
<!-- Generator: Adobe Illustrator 22.0.1, SVG Export Plug-In . SVG Version: 6.00 Build 0)  -->
<svg version="1.1" id="Layer_1" xmlns="http://www.w3.org/2000/svg" xmlns:xlink="http://www.w3.org/1999/xlink" x="0px" y="0px"
	 viewBox="0 0 320 100" style="enable-background:new 0 0 320 100;" xml:space="preserve">
<style type="text/css">
	.st0{fill:url(#SVGID_1_);}
	.st1{fill:#7D868C;}
	.st2{fill:#1C3E7C;}
</style>
<linearGradient id="SVGID_1_" gradientUnits="userSpaceOnUse" x1="51.8595" y1="1" x2="51.8595" y2="99">
	<stop  offset="0" style="stop-color:#08A0D4"/>
	<stop  offset="1" style="stop-color:#102A6B"/>
</linearGradient>
<path class="st0" d="M65.8,24L56.9,8.6C52.8,1.3,43.5-1.2,36.2,3L4.3,21.5c-1.8,1.1-2.4,3.4-1.4,5.2l24.2,41.9
	c1,1.8,3.4,2.4,5.2,1.4c0,0,0,0,0,0l31.9-18.4l-3.8-6.6L31.7,61.5L11.4,26.2L40,9.6c3.6-2.1,8.3-0.8,10.4,2.8l8.8,15.3L30.6,44.3
	l3.8,6.6l35.2-20.3c3.6-2.1,8.3-0.8,10.4,2.8l12.7,22.1c2.1,3.7,0.9,8.3-2.8,10.4L48.2,90l-8.8-15.3l-6.6,3.8l10.7,18.6
	c1,1.8,3.4,2.4,5.2,1.4c0,0,0,0,0,0l45-26c7.3-4.2,9.8-13.6,5.6-20.8L86.5,29.6C82.4,22.3,73.1,19.8,65.8,24z"/>
<path class="st1" d="M108.6,83.8l1.8-2.3c1.6,1.8,4.2,3.5,7.6,3.5c4.3,0,5.7-2.3,5.7-4.2c0-6.2-14.3-2.8-14.3-11.4
	c0-4,3.6-6.7,8.3-6.7c3.7,0,6.5,1.3,8.6,3.4l-1.8,2.2c-1.8-2-4.4-2.9-7-2.9c-2.9,0-5,1.6-5,3.8c0,5.4,14.3,2.3,14.3,11.4
	c0,3.5-2.4,7.1-8.9,7.1C113.7,87.6,110.5,86,108.6,83.8z"/>
<path class="st1" d="M130.3,75.1c0-7.1,4.9-12.5,12-12.5c7.1,0,12,5.4,12,12.5c0,7.1-4.9,12.5-12,12.5
	C135.1,87.6,130.3,82.3,130.3,75.1z M151.2,75.1c0-5.7-3.5-9.8-8.9-9.8c-5.4,0-8.9,4.2-8.9,9.8c0,5.6,3.4,9.8,8.9,9.8
	C147.7,85,151.2,80.8,151.2,75.1z"/>
<path class="st1" d="M158,88V62h16v3h-13v8h9v3h-9v12H158z"/>
<path class="st1" d="M185,87V65h-8v-3h18v3h-7v22H185z"/>
<path class="st2" d="M201,12.4h-13v38.9h13c10.7,0,19.5-8.7,19.5-19.5v0C220.4,21.1,211.7,12.4,201,12.4z M213,31.8
	c0,6.6-5.4,12-12,12h-5.6V19.8h5.6C207.6,19.8,213,25.2,213,31.8L213,31.8z"/>
<path class="st2" d="M180.6,51.3l-12.1-38.9h-8.3l-12.1,38.9l7.8,0l2.3-7.4h12.3l2.3,7.4L180.6,51.3z M160.8,35.5l3.6-11.4l3.6,11.4
	H160.8z"/>
<rect x="227.9" y="12.4" class="st2" width="7.4" height="38.9"/>
<polygon class="st2" points="269.6,12.4 269.6,37 252,12.4 244.6,12.4 244.6,51.3 252,51.3 252,26.7 269.6,51.3 277,51.3 277,12.4 
	"/>
<path class="st2" d="M137.1,30.6c1.3-1.9,2.1-4.1,2.1-6.6c0-6.4-5.2-11.5-11.6-11.5h-19v15.1h0v23.7h20.8c6.4,0,11.6-5.3,11.6-11.9
	v0C141,35.9,139.5,32.7,137.1,30.6z M116,20h11.3c2.1,0,3.8,1.7,3.8,3.8v0c0,2-1.5,3.6-3.4,3.8H116V20z M129.1,43.8H116v-8.3h11.6
	h1.5c2.1,0,3.8,1.9,3.8,4.1C132.9,42,131.2,43.8,129.1,43.8z"/>
</svg>
