<?xml version="1.0" encoding="utf-8"?>
<!-- Generator: Adobe Illustrator 22.1.0, SVG Export Plug-In . SVG Version: 6.00 Build 0)  -->
<svg version="1.1" id="Layer_1" xmlns="http://www.w3.org/2000/svg" xmlns:xlink="http://www.w3.org/1999/xlink" x="0px" y="0px"
	 viewBox="0 0 160 160" style="enable-background:new 0 0 160 160;" xml:space="preserve">
<style type="text/css">
	.st0{opacity:0.15;fill:#317ADE;}
	.st1{fill:none;stroke:#50555B;stroke-width:3;stroke-linecap:round;stroke-linejoin:round;stroke-miterlimit:10;}
	.st2{fill:#50555B;}
	.st3{fill:none;stroke:#317ADE;stroke-width:3;stroke-linecap:round;stroke-linejoin:round;stroke-miterlimit:10;}
	.st4{fill:none;stroke:#317ADE;stroke-width:2;stroke-linecap:round;stroke-linejoin:round;stroke-miterlimit:10;}
</style>
<path class="st0" d="M140.1,135H23.4c-3.2,0-5.8-2.6-5.8-5.8V33.9c0-3.2,2.6-5.8,5.8-5.8h124.1c3.2,0,5.8,2.6,5.8,5.8v87.9
	C153.3,129.1,147.4,135,140.1,135z"/>
<path class="st1" d="M12.6,56.2V31.7c0-5.1,4.1-9.2,9.2-9.2h116.5c5.1,0,9.2,4.1,9.2,9.2v87.7c0,5.1-4.1,9.2-9.2,9.2H90.7"/>
<circle class="st2" cx="137.5" cy="32.5" r="3"/>
<circle class="st2" cx="126.5" cy="32.5" r="3"/>
<circle class="st2" cx="115.5" cy="32.5" r="3"/>
<path class="st3" d="M87,69.4l4.6,9.3L88,82.1c-1.9,1.9-2.9,4.5-2.6,7.2v0c0.3,2.7,1.8,5.1,4.1,6.5l4.3,2.6l-2.5,10l-5,0.4
	c-2.7,0.2-5.1,1.6-6.6,3.9l0,0c-1.5,2.2-1.9,5.1-1,7.6l1.6,4.8l-8.3,6.1l-4.1-2.9c-2.2-1.6-5-2.1-7.6-1.3h0
	c-2.6,0.8-4.7,2.7-5.7,5.2l-1.9,4.7l-10.3-0.7l-1.2-4.9c-0.7-2.6-2.5-4.8-5-5.9l0,0c-2.5-1.1-5.3-1-7.7,0.3l-4.4,2.4l-7.4-7.1
	l2.2-4.5c1.2-2.4,1.2-5.3,0-7.7l0,0c-1.2-2.4-3.4-4.2-6.1-4.7l-4.9-1L6.8,92.7l4.6-2c2.5-1.1,4.3-3.3,4.9-5.9l0,0
	c0.6-2.6,0-5.4-1.6-7.5l-3.1-3.9l5.7-8.6l4.8,1.4c2.6,0.7,5.4,0.2,7.6-1.4l0,0c2.2-1.6,3.5-4.1,3.6-6.8l0.1-5l9.9-2.9l2.8,4.2
	c1.5,2.2,4,3.6,6.7,3.8h0c2.7,0.2,5.3-0.9,7.1-2.9l3.3-3.7l9.4,4.2l-0.5,5c-0.3,2.7,0.7,5.3,2.6,7.2l0,0"/>
<path class="st4" d="M71.9,93.4c0,12-9.7,21.7-21.7,21.7s-21.7-9.7-21.7-21.7s9.7-21.7,21.7-21.7c4,0,7.7,1.1,10.9,2.9"/>
</svg>
