<?xml version="1.0" encoding="utf-8"?>
<!-- Generator: Adobe Illustrator 22.1.0, SVG Export Plug-In . SVG Version: 6.00 Build 0)  -->
<svg version="1.1" id="Layer_1" xmlns="http://www.w3.org/2000/svg" xmlns:xlink="http://www.w3.org/1999/xlink" x="0px" y="0px"
	 viewBox="0 0 160 160" style="enable-background:new 0 0 160 160;" xml:space="preserve">
<style type="text/css">
	.st0{opacity:0.15;fill:#317ADE;}
	.st1{fill:none;stroke:#317ADE;stroke-width:3;stroke-linecap:round;stroke-linejoin:round;stroke-miterlimit:10;}
	.st2{fill:none;stroke:#50555B;stroke-width:3;stroke-linecap:round;stroke-linejoin:round;stroke-miterlimit:10;}
</style>
<path class="st0" d="M114,152.5H49.1c-1.5,0-2.7-1.2-2.7-2.7V24c0-1.5,1.2-2.7,2.7-2.7h70.1c1.5,0,2.7,1.2,2.7,2.7v120.6
	C121.9,149,118.4,152.5,114,152.5z"/>
<path class="st1" d="M109.8,41.1v83.8c0,2.3-1.8,4.1-4.1,4.1H54.3c-2.3,0-4.1-1.8-4.1-4.1V33.1c0-2.3,1.8-4.1,4.1-4.1h44.2"/>
<path class="st2" d="M42.6,132.5v-110c0-2.8,2.3-5.1,5.1-5.1h64.5c2.8,0,5.1,2.3,5.1,5.1v120.1c0,2.8-2.3,5.1-5.1,5.1H56.8"/>
<line class="st2" x1="68.8" y1="138.2" x2="91.3" y2="138.2"/>
<line class="st2" x1="75.8" y1="22.8" x2="84.2" y2="22.8"/>
</svg>
