<?xml version="1.0" encoding="utf-8"?>
<!-- Generator: Adobe Illustrator 22.1.0, SVG Export Plug-In . SVG Version: 6.00 Build 0)  -->
<svg version="1.1" id="Layer_1" xmlns="http://www.w3.org/2000/svg" xmlns:xlink="http://www.w3.org/1999/xlink" x="0px" y="0px"
	 viewBox="0 0 160 160" style="enable-background:new 0 0 160 160;" xml:space="preserve">
<style type="text/css">
	.st0{opacity:0.15;fill:#317ADE;}
	.st1{fill:none;stroke:#50555B;stroke-width:3;stroke-linecap:round;stroke-linejoin:round;stroke-miterlimit:10;}
	.st2{fill:#50555B;}
	.st3{fill:none;stroke:#317ADE;stroke-width:3;stroke-linecap:round;stroke-linejoin:round;stroke-miterlimit:10;}
</style>
<path class="st0" d="M132.4,126.2h-100c-5.9,0-10.7-4.8-10.7-10.7V40c0-5.9,4.8-10.7,10.7-10.7h106c5.9,0,10.7,4.8,10.7,10.7v69.6
	C149,118.8,141.6,126.2,132.4,126.2z"/>
<path class="st1" d="M66.1,120.1H29c-6.8,0-12.2-5.5-12.2-12.2V36c0-6.8,5.5-12.2,12.2-12.2H131c6.8,0,12.2,5.5,12.2,12.2v71.9
	c0,6.8-5.5,12.2-12.2,12.2h-37v11.8h6c2.2,0,3.9,1.7,3.9,3.9l0,0c0,2.2-1.7,3.9-3.9,3.9H56.2"/>
<circle class="st2" cx="80" cy="108" r="3.7"/>
<path class="st3" d="M39.8,35.4h87.5c2.4,0,4.3,1.9,4.3,4.3v53.7c0,2.4-1.9,4.3-4.3,4.3H31.5c-2.4,0-4.3-1.9-4.3-4.3V47.2"/>
<polyline class="st3" points="64.8,81 51.2,67.4 64.8,53.8 "/>
<polyline class="st3" points="95.2,81 108.8,67.4 95.2,53.8 "/>
<line class="st3" x1="72" y1="84.8" x2="88" y2="48.5"/>
</svg>
